<?xml version="1.0" encoding="UTF-8" standalone="no"?>
<!-- Created with Inkscape (http://www.inkscape.org/) -->

<svg
   width="120"
   height="120"
   viewBox="0 0 120 120"
   version="1.1"
   id="svg5"
   xmlns="http://www.w3.org/2000/svg"
   xmlns:svg="http://www.w3.org/2000/svg"
   xmlns:rdf="http://www.w3.org/1999/02/22-rdf-syntax-ns#"
   xmlns:cc="http://creativecommons.org/ns#"
   xmlns:dc="http://purl.org/dc/elements/1.1/">
  <title
     id="title7574">graph icon</title>
  <defs
     id="defs2" />
  <g
     id="layer1">
    <path
       id="rect910"
       style="fill:#000000;fill-opacity:1;stroke:none;stroke-opacity:1;paint-order:markers stroke fill"
       d="M 5.9453125,30 C 5.634776,30 5.3847656,30.250006 5.3847656,30.560547 V 89.439453 C 5.3847656,89.749994 5.634776,90 5.9453125,90 H 114.05469 c 0.31054,0 0.56054,-0.250006 0.56054,-0.560547 V 30.560547 C 114.61523,30.250006 114.36523,30 114.05469,30 Z m 8.8027345,5.175781 H 24.888672 V 55.158203 H 14.748047 Z m 39.916015,0 H 64.802734 V 55.158203 H 54.664062 Z m 20.027344,0 H 84.832031 V 55.158203 H 74.691406 Z m 20.027344,0 h 10.14063 V 55.158203 H 94.71875 Z m -59.943359,0.09375 h 1.914062 v 18.089844 h 8.085938 v 1.798828 h -8.085938 -1.914062 v -1.798828 z m 0,28.814453 H 44.916016 V 84.066406 H 34.775391 Z m 39.875,0.04883 h 10.138671 v 19.98242 H 74.650391 Z m -59.902344,0.04688 h 1.914062 v 18.089843 h 8.226563 v 1.796875 h -8.226563 -1.773437 -0.140625 z m 40.251953,0 h 1.914062 v 18.089843 h 8.169922 v 1.796875 H 56.914062 55.083984 55 Z m 39.355469,0 h 1.914062 v 18.089843 h 8.085939 v 1.796875 h -8.085939 -1.914062 v -1.796875 z" />
  </g>
  <metadata
     id="metadata7572">
    <rdf:RDF>
      <cc:Work
         rdf:about="">
        <dc:title>graph icon</dc:title>
      </cc:Work>
    </rdf:RDF>
  </metadata>
</svg>
